# ProBuilder 5.2.3
# https://unity3d.com/unity/features/worldbuilding/probuilder
# 28/09/2024 08:06:18

mtllib ./Connector.mtl
o Connector

g Arch
v -5.900002 1.364946E-06 1.249999
v -5.839104 1.198079E-06 0.9438523
v -5.899999 1.000001 1.249999
v -5.839101 1.000001 0.9438523
v -5.820627 1.141454E-06 0.951506
v -5.880002 1.30415E-06 1.249999
v -5.820624 1.000001 0.951506
v -5.879999 1.000001 1.249999
v -5.665686 6.863859E-07 0.684314
v -5.665682 1.000001 0.684314
v -5.651543 6.425531E-07 0.6984562
v -5.65154 1.000001 0.6984562
v -5.406146 -9.223272E-08 0.5108966
v -5.406143 0.9999999 0.5108966
v -5.398493 -1.166E-07 0.5293742
v -5.398489 0.9999999 0.5293742
v -5.099999 -1.01924E-06 0.4500011
v -5.099996 0.9999989 0.4500011
v -5.099999 -1.020432E-06 0.470001
v -5.099996 0.9999989 0.470001

vt 0.07803609 -0.4999999
vt -0.2341083 -0.4999999
vt 0.07803609 0.5000001
vt -0.2341083 0.5000001
vt 0.2302066 -0.4999999
vt -0.07413428 -0.4999999
vt 0.2302066 0.5000001
vt -0.07413428 0.5000001
vt -0.06615579 -0.4999999
vt -0.3783004 -0.4999999
vt -0.06615579 0.5000001
vt -0.3783004 0.5000001
vt 0.3743985 -0.4999999
vt 0.0700575 -0.4999999
vt 0.3743985 0.5000001
vt 0.0700575 0.5000001
vt 0.4999999 -0.1765156
vt 0.4999999 -0.48866
vt -0.5000001 -0.1765156
vt -0.5000001 -0.48866
vt -0.4999999 -0.4847583
vt -0.4999999 -0.1804174
vt 0.5000001 -0.4847583
vt 0.5000001 -0.1804174
vt 0.4999999 -0.2362418
vt 0.4999999 -0.5483865
vt -0.5000001 -0.2362418
vt -0.5000001 -0.5483865
vt -0.4999999 -0.5444846
vt -0.4999999 -0.2401436
vt 0.5000001 -0.5444846
vt 0.5000001 -0.2401436
vt 0.78 0.5000001
vt 0.8 0.5000001
vt 0.78 -0.4999999
vt 0.8 -0.4999999
vt 1.112707E-08 0.4
vt 0.3061467 0.3391037
vt 1.025285E-08 0.3800001
vt 0.298493 0.3206261
vt -0.3061467 0.3391037
vt -0.298493 0.3206261
vt 0.5656855 0.1656855
vt 0.5515433 0.1515433
vt -0.5656855 0.1656855
vt -0.5515433 0.1515433
vt 0.7391036 -0.09385318
vt 0.7206261 -0.1015069
vt -0.7391036 -0.09385318
vt -0.7206261 -0.1015069
vt 0.8 -0.4
vt 0.78 -0.4
vt -0.8 -0.4
vt -0.78 -0.4
vt 0.5000001 0.3800001
vt 0.5000001 0.4
vt -0.4999999 0.3800001
vt -0.4999999 0.4

vn -0.9807848 2.993056E-06 -0.1950931
vn -0.9238785 2.831253E-06 -0.3826861
vn 0.9238784 -2.831253E-06 0.3826862
vn 0.9807848 -2.993056E-06 0.1950931
vn -0.7071048 2.191636E-06 -0.7071089
vn 0.7071047 -2.191636E-06 0.7071089
vn -0.3826808 1.218363E-06 -0.9238808
vn 0.555568 -1.738403E-06 0.8314713
vn -0.1950875 6.515021E-07 -0.980786
vn 0.1950875 -6.51502E-07 0.980786
vn 1 -3.039837E-06 2.920628E-06
vn 3.129244E-06 1 0
vn -3.129244E-06 -1 0
vn -2.904734E-06 -5.960451E-08 1

usemtl Collider
f 3/3/1 4/4/2 2/2/2 1/1/1
f 7/7/3 8/8/4 6/6/4 5/5/3
f 4/11/2 10/12/5 9/10/5 2/9/2
f 12/15/6 7/16/3 5/14/3 11/13/6
f 10/19/5 14/20/7 13/18/7 9/17/5
f 16/23/8 12/24/6 11/22/6 15/21/8
f 14/27/7 18/28/9 17/26/9 13/25/7
f 20/31/10 16/32/10 15/30/10 19/29/10
f 19/35/11 17/36/11 18/34/11 20/33/11
f 8/39/12 7/40/12 4/38/12 3/37/12
f 5/42/13 6/39/13 1/37/13 2/41/13
f 7/40/12 12/44/12 10/43/12 4/38/12
f 11/46/13 5/42/13 2/41/13 9/45/13
f 12/44/12 16/48/12 14/47/12 10/43/12
f 15/50/13 11/46/13 9/45/13 13/49/13
f 16/48/12 20/52/12 18/51/12 14/47/12
f 19/54/13 15/50/13 13/49/13 17/53/13
f 1/58/14 6/57/14 8/55/14 3/56/14

