# ProBuilder 5.2.3
# https://unity3d.com/unity/features/worldbuilding/probuilder
# 28/09/2024 08:00:13

mtllib ./Corner.mtl
o Corner

g Arch
v 1.112707E-08 0.4 -0.4999999
v 0.3061467 0.3391037 -0.4999999
v 1.112707E-08 0.4 0.5000001
v 0.3061467 0.3391037 0.5000001
v 0.298493 0.3206261 -0.4999999
v 1.025285E-08 0.3800001 -0.4999999
v 0.298493 0.3206261 0.5000001
v 1.025285E-08 0.3800001 0.5000001
v 0.5656855 0.1656855 -0.4999999
v 0.5656855 0.1656855 0.5000001
v 0.5515433 0.1515433 -0.4999999
v 0.5515433 0.1515433 0.5000001
v 0.7391036 -0.09385318 -0.4999999
v 0.7391036 -0.09385318 0.5000001
v 0.7206261 -0.1015069 -0.4999999
v 0.7206261 -0.1015069 0.5000001
v 0.8 -0.4 -0.4999999
v 0.8 -0.4 0.5000001
v 0.78 -0.4 -0.4999999
v 0.78 -0.4 0.5000001

vt 0.07803609 -0.4999999
vt -0.2341083 -0.4999999
vt 0.07803609 0.5000001
vt -0.2341083 0.5000001
vt 0.2302066 -0.4999999
vt -0.07413428 -0.4999999
vt 0.2302066 0.5000001
vt -0.07413428 0.5000001
vt -0.06615579 -0.4999999
vt -0.3783004 -0.4999999
vt -0.06615579 0.5000001
vt -0.3783004 0.5000001
vt 0.3743985 -0.4999999
vt 0.0700575 -0.4999999
vt 0.3743985 0.5000001
vt 0.0700575 0.5000001
vt 0.4999999 -0.1765156
vt 0.4999999 -0.48866
vt -0.5000001 -0.1765156
vt -0.5000001 -0.48866
vt -0.4999999 -0.4847583
vt -0.4999999 -0.1804174
vt 0.5000001 -0.4847583
vt 0.5000001 -0.1804174
vt 0.4999999 -0.2362418
vt 0.4999999 -0.5483865
vt -0.5000001 -0.2362418
vt -0.5000001 -0.5483865
vt -0.4999999 -0.5444846
vt -0.4999999 -0.2401436
vt 0.5000001 -0.5444846
vt 0.5000001 -0.2401436
vt 0.78 0.5000001
vt 0.8 0.5000001
vt 0.78 -0.4999999
vt 0.8 -0.4999999
vt 1.112707E-08 0.4
vt 0.3061467 0.3391037
vt 1.025285E-08 0.3800001
vt 0.298493 0.3206261
vt -0.3061467 0.3391037
vt -0.298493 0.3206261
vt 0.5656855 0.1656855
vt 0.5515433 0.1515433
vt -0.5656855 0.1656855
vt -0.5515433 0.1515433
vt 0.7391036 -0.09385318
vt 0.7206261 -0.1015069
vt -0.7391036 -0.09385318
vt -0.7206261 -0.1015069
vt 0.8 -0.4
vt 0.78 -0.4
vt -0.8 -0.4
vt -0.78 -0.4
vt 0.5000001 0.3800001
vt 0.5000001 0.4
vt -0.4999999 0.3800001
vt -0.4999999 0.4

vn 0.1950902 0.9807853 0
vn 0.3826833 0.9238796 0
vn -0.3826834 -0.9238795 0
vn -0.1950902 -0.9807853 0
vn 0.7071068 0.7071068 0
vn -0.7071068 -0.7071068 0
vn 0.9238795 0.3826834 0
vn -0.8314696 -0.5555704 0
vn 0.9807853 0.1950903 0
vn -0.9807853 -0.1950903 0
vn 0 -1 0
vn 0 0 1
vn 0 0 -1
vn -1 4.371139E-08 0

usemtl Lit
f 3/3/1 4/4/2 2/2/2 1/1/1
f 7/7/3 8/8/4 6/6/4 5/5/3
f 4/11/2 10/12/5 9/10/5 2/9/2
f 12/15/6 7/16/3 5/14/3 11/13/6
f 10/19/5 14/20/7 13/18/7 9/17/5
f 16/23/8 12/24/6 11/22/6 15/21/8
f 14/27/7 18/28/9 17/26/9 13/25/7
f 20/31/10 16/32/10 15/30/10 19/29/10
f 19/35/11 17/36/11 18/34/11 20/33/11
f 8/39/12 7/40/12 4/38/12 3/37/12
f 5/42/13 6/39/13 1/37/13 2/41/13
f 7/40/12 12/44/12 10/43/12 4/38/12
f 11/46/13 5/42/13 2/41/13 9/45/13
f 12/44/12 16/48/12 14/47/12 10/43/12
f 15/50/13 11/46/13 9/45/13 13/49/13
f 16/48/12 20/52/12 18/51/12 14/47/12
f 19/54/13 15/50/13 13/49/13 17/53/13
f 1/58/14 6/57/14 8/55/14 3/56/14

