# ProBuilder 5.2.3
# https://unity3d.com/unity/features/worldbuilding/probuilder
# 28/09/2024 08:45:51

mtllib ./CornerMesh.mtl
o CornerMesh

g Cube
v -4 0 0.5
v -4.5 0 0.5
v -4 1 0.5
v -4.5 1 0.5
v -4.25 0 0.25
v -4.25 1 0.25
v -4 0 0
v -4 1 0

vt 0.25 -0.5
vt -0.25 -0.5
vt 0.25 0.5
vt -0.25 0.5
vt 0.3535534 -0.5
vt 0 -0.5
vt 0.3535534 0.5
vt -1.962616E-17 0.5
vt -0.3535534 -0.5
vt -0.3535534 0.5
vt -0.25 0.25
vt 0.25 0.25
vt -0.25 -0.25
vt 0 -2.775558E-17
vt 0.25 -0.25

vn 0 -2.220446E-17 1
vn -0.7071068 1.570093E-17 -0.7071068
vn 1 0 0
vn 0 1 2.220446E-17
vn 0 0.5 1.110223E-17
vn 0 0 0
vn 0 -1 -2.220446E-17

usemtl Lit
f 3/3/1 4/4/1 2/2/1 1/1/1
f 4/7/2 6/8/2 5/6/2 2/5/2
f 6/8/2 8/10/2 7/9/2 5/6/2
f 8/3/3 3/4/3 1/2/3 7/1/3
f 8/13/5 6/14/6 4/12/5 3/11/4
f 1/12/7 2/11/7 5/14/7 7/15/7

